<svg width="162" height="34" viewBox="0 0 162 34" fill="none" xmlns="http://www.w3.org/2000/svg">
<g clip-path="url(#clip0_232_100)">
<path d="M0.483765 28.5278C3.44138 28.8235 5.60053 28.9714 6.96099 28.9714C8.32157 28.9714 9.25322 28.8679 9.75596 28.6609C10.2884 28.4538 10.6876 28.2172 10.9539 27.951C11.22 27.6553 11.4123 27.2264 11.5306 26.6645C11.6785 25.9546 11.7525 25.0821 11.7525 24.0469C11.7525 23.0118 11.501 22.1096 10.9982 21.3407C10.4954 20.5717 10.0222 19.9949 9.57852 19.6105C9.1645 19.2259 8.3955 18.5456 7.27162 17.5696C6.14763 16.5936 5.34905 15.8986 4.87588 15.4845C4.43218 15.0409 3.79637 14.3606 2.96821 13.4438C1.45978 11.7875 0.705561 10.0572 0.705561 8.25305C0.705561 5.11789 1.03097 3.19543 1.68157 2.48557C2.68716 1.45041 3.76679 0.858954 4.92024 0.71098C6.0737 0.533543 7.30119 0.444824 8.60251 0.444824L14.6361 1.73146C14.3996 3.41723 14.0594 4.40814 13.6158 4.70387C13.4088 4.88131 13.039 4.97002 12.5067 4.97002C12.0038 4.97002 11.3383 4.88131 10.5102 4.70387L8.8243 4.39335C7.07928 4.39335 6.01455 4.74823 5.63011 5.45808C5.39352 5.84253 5.24555 6.19752 5.1864 6.52282C5.15683 6.84812 5.14204 7.33618 5.14204 7.98689C5.14204 9.19949 6.63569 11.0628 9.62288 13.5768C11.0426 14.7007 12.1517 15.6471 12.9503 16.4162C13.7488 17.1852 14.5031 18.1168 15.2129 19.2111C15.9227 20.3054 16.2777 21.3407 16.2777 22.3167C16.2777 23.2927 16.2629 24.0469 16.2333 24.5793C16.2333 25.0821 16.1742 25.792 16.0558 26.7088C15.967 27.5961 15.8192 28.2911 15.6122 28.7939C15.4051 29.2968 15.0945 29.8735 14.6805 30.5242C14.2664 31.1749 13.7636 31.6628 13.1721 31.9882C11.6637 32.8164 9.85957 33.2304 7.75957 33.2304C6.57655 33.2304 5.20119 33.0973 3.63372 32.8312C2.06613 32.5353 1.01619 32.3579 0.483765 32.2988V28.5278ZM33.2492 4.74822H27.8367L28.2361 5.85732V30.2137C28.2361 31.5741 28.0881 32.3727 27.7924 32.6093C27.5262 32.8164 26.5945 32.9199 24.9974 32.9199H23.9327V5.85732L24.2432 4.74822H18.9194V0.977245H33.2492V4.74822ZM37.8756 32.9199H36.8109V0.932885L43.155 0.444824C45.8169 0.444824 47.6507 0.829382 48.6564 1.59828C49.0408 1.89412 49.3661 2.16027 49.6324 2.39685C49.8985 2.63355 50.1203 2.98842 50.2978 3.46169L50.6527 4.70387C50.8598 5.26586 50.9633 6.00518 50.9633 6.92205V9.49522C50.9633 13.7543 50.3569 16.4162 49.1443 17.4809C48.6119 17.9542 47.9169 18.2351 47.0592 18.3238L54.1132 32.9199H52.6491C51.1703 32.9199 50.1647 32.7867 49.6324 32.5206C49.0999 32.2248 48.6119 31.5741 48.1683 30.5685L42.7114 18.4569H40.6262L41.0256 19.5661L41.0699 30.2137C41.0699 31.5741 40.9368 32.3727 40.6707 32.6093C40.4044 32.8164 39.4728 32.9199 37.8756 32.9199ZM43.2438 14.5085C44.8409 14.5085 45.8021 14.1832 46.1275 13.5325C46.4824 12.8818 46.6599 11.817 46.6599 10.3382C46.6599 8.85941 46.6451 7.92775 46.6155 7.54319C46.6155 7.12917 46.5564 6.67068 46.4381 6.16794C46.3198 5.63552 46.1423 5.28065 45.9056 5.1031C45.2846 4.62993 44.3973 4.39335 43.2438 4.39335H40.6262L41.0256 5.50244V13.4881L40.6707 14.5085H43.2438ZM78.0773 0.977245C79.142 0.977245 79.8364 1.03639 80.1628 1.15468C80.5176 1.27297 80.6951 1.5687 80.6951 2.04198C80.6951 2.51514 78.7575 7.70584 74.8824 17.614V32.9199H73.9065C72.3095 32.9199 71.3632 32.8164 71.0675 32.6093C70.8013 32.3727 70.6677 31.5741 70.6677 30.2137V17.5696L64.324 0.977245H66.0543C67.3259 0.977245 68.1102 1.08075 68.4059 1.28776C68.7016 1.49477 69.0861 2.21941 69.5592 3.46169L72.487 12.379H73.1529L76.924 0.977245H78.0773ZM96.8265 30.2137C96.8265 31.5741 96.6787 32.3727 96.3829 32.6093C96.1157 32.8164 95.1989 32.9199 93.6316 32.9199H92.7006V0.977245H93.6316C95.1989 0.977245 96.1157 1.09554 96.3829 1.33212C96.6787 1.53913 96.8265 2.32292 96.8265 3.68349V12.6452L96.6491 13.7543H103.969L103.835 12.6452V0.977245H104.811C106.38 0.977245 107.296 1.09554 107.563 1.33212C107.858 1.53913 108.006 2.32292 108.006 3.68349V32.9199H107.119C105.492 32.9199 104.531 32.8164 104.235 32.6093C103.969 32.3727 103.835 31.5741 103.835 30.2137V18.6344L104.19 17.7028H96.4717L96.8265 18.7232V30.2137ZM129.713 9.98328V30.2137C129.713 31.5741 129.565 32.3727 129.269 32.6093C129.003 32.8164 128.086 32.9199 126.518 32.9199H125.542V0.977245H126.563C127.982 0.977245 128.869 1.08075 129.224 1.28776C129.579 1.49477 130.038 2.20463 130.6 3.41723L135.436 14.4641H136.323L142.268 0.977245H142.933C144.53 0.977245 145.462 1.09554 145.728 1.33212C146.024 1.53913 146.172 2.32292 146.172 3.68349V32.9199H145.196C143.599 32.9199 142.667 32.8164 142.401 32.6093C142.134 32.3727 142.002 31.5741 142.002 30.2137L141.957 10.0276H141.824L138.541 17.969L137.344 20.1871H134.415L133.218 17.969L129.845 9.98328H129.713Z" fill="#F9D7AE"/>
<path d="M65.224 24.7222C64.124 24.7222 63.4556 24.6359 63.2183 24.4633C63.0027 24.2908 62.7978 23.7193 62.6037 22.7489L61.5038 17.2818H57.4278L56.1015 24.7222H55.3574C54.3223 24.7222 53.6644 24.6683 53.3841 24.5604C53.1038 24.431 52.9636 24.1506 52.9636 23.7193C52.9636 23.2664 54.6026 15.8369 57.8807 1.43066H60.9862L66.292 24.7222H65.224ZM59.2717 7.31819L58.0747 13.6263L57.8159 14.1763H61.1479C61.1263 14.1547 61.0724 14.0576 60.9862 13.8851C60.8999 13.691 60.8568 13.5833 60.8568 13.5617L59.5952 7.31819H59.2717Z" fill="#F9D7AE"/>
<path d="M64.7618 24.7222C63.6619 24.7222 62.9935 24.6359 62.7563 24.4633C62.5406 24.2908 62.3357 23.7193 62.1416 22.7489L61.0417 17.2818H56.9657L55.6394 24.7222H54.8953C53.8602 24.7222 53.2023 24.6683 52.9221 24.5604C52.6417 24.431 52.5015 24.1506 52.5015 23.7193C52.5015 23.2664 54.1405 15.8369 57.4186 1.43066H60.5242L65.8297 24.7222H64.7618ZM58.8096 7.31819L57.6127 13.6263L57.3538 14.1763H60.6858C60.6642 14.1547 60.6104 14.0576 60.5242 13.8851C60.4378 13.691 60.3947 13.5833 60.3947 13.5617L59.1331 7.31819H58.8096Z" fill="#F9D7AE"/>
<path d="M51.8545 28.7134H67.1047V32.8726H51.8545V28.7134Z" fill="#F9D7AE"/>
<path d="M146.13 28.7134H161.38V32.8726H146.13V28.7134Z" fill="#F9D7AE"/>
<path d="M107.773 28.7134H123.023V32.8726H107.773V28.7134Z" fill="#F9D7AE"/>
<path d="M117.052 25.0683C114.615 25.0683 112.955 24.1409 112.071 22.2862C111.208 20.4316 110.776 17.3691 110.776 13.099C110.776 8.82893 111.241 5.77734 112.167 3.94415C113.095 2.08949 114.724 1.16211 117.052 1.16211C119.403 1.16211 121.031 2.07876 121.937 3.91184C122.843 5.74492 123.295 8.80736 123.295 13.099C123.295 17.3907 122.864 20.4639 122.002 22.3186C121.161 24.1517 119.511 25.0683 117.052 25.0683ZM113.85 13.002C113.85 16.086 114.087 18.3936 114.562 19.9248C115.036 21.4344 115.866 22.1892 117.052 22.1892C118.26 22.1892 119.101 21.4344 119.576 19.9248C120.05 18.3936 120.288 16.0967 120.288 13.0343C120.288 7.0389 119.209 4.0412 117.052 4.0412C114.917 4.0412 113.85 7.02816 113.85 13.002Z" fill="#F9D7AE"/>
<path d="M160.076 21.9633V24.8424H149.92V1.55078H159.753V4.30051H152.798L153.089 5.10928V10.0587L152.798 10.8674H159.365V13.7465H152.831L153.089 14.4906V21.1545L152.798 21.9633H160.076Z" fill="#F9D7AE"/>
<path d="M160.076 22.887V25.7661H149.92V2.47461H159.753V5.22434H152.798L153.089 6.033V10.9825L152.798 11.7912H159.365V14.6703H152.831L153.089 15.4144V22.0783L152.798 22.887H160.076Z" fill="#F9D7AE"/>
</g>
<defs>
<clipPath id="clip0_232_100">
<rect width="162" height="34" fill="white"/>
</clipPath>
</defs>
</svg>
