<svg width="39" height="40" viewBox="0 0 39 40" fill="none" xmlns="http://www.w3.org/2000/svg">
<path d="M10.0309 27C7.22681 24.1667 1.61856 16.4 1.61856 8C1.94846 6.33333 3.79588 2.8 8.5464 2C10.8557 3.5 15.9691 9.5 15.4742 10.5C14.9794 11.5 13.9897 12 10.0309 15.5C10.0309 16.6667 11.5155 20.5 15.4742 24.5" stroke="#F9D7AE" stroke-width="2"/>
<path d="M9.53608 26.5C12.2893 29.3838 23.1987 38.6058 31.5108 38.7569C33.1659 38.4536 36.6955 36.6507 37.5725 31.8659C36.1298 29.506 30.2845 24.2322 29.2861 24.7142C28.2877 25.1961 27.7751 26.187 24.2406 30.1234C23.0861 30.1024 19.3196 28.5337 15.4327 24.4624" stroke="#F9D7AE" stroke-width="2"/>
</svg>
