<svg width="40" height="39" viewBox="0 0 40 39" fill="none" xmlns="http://www.w3.org/2000/svg">
<path d="M13.3918 22C12.6556 22 11.2477 21.4877 9.96943 20.9395C9.1761 20.5992 9.21909 19.4993 10.0224 19.1833C17.1576 16.3771 28.3733 12 28.732 12C29.0719 12 26.7608 20.6009 25.0564 26.7254C24.6822 28.0702 23.0791 28.6187 21.9543 27.7921L18.8351 25.5C17.3505 26.5 16.3608 28 15.866 28.5C15.4701 28.9 15.701 25.3333 15.866 23.5L24.4306 16.2126C24.5233 16.1337 24.4253 15.9916 24.3204 16.0533C20.6319 18.2249 14.4795 22 13.3918 22Z" stroke="#F9D7AE" stroke-width="1.5"/>
<path d="M38.1237 19.5C38.1237 29.7271 29.9212 38 19.8247 38C9.72823 38 1.52576 29.7271 1.52576 19.5C1.52576 9.27294 9.72823 1 19.8247 1C29.9212 1 38.1237 9.27294 38.1237 19.5Z" stroke="#F9D7AE" stroke-width="2"/>
</svg>
